{
	"asset":{
		"generator":"Khronos glTF Blender I/O v3.6.27",
		"version":"2.0"
	},
	"extensionsUsed":[
		"KHR_materials_transmission",
		"KHR_materials_volume"
	],
	"scene":0,
	"scenes":[
		{
			"name":"Scene",
			"nodes":[
				0,
				1,
				2,
				3,
				4,
				5,
				6,
				7,
				8,
				9,
				10,
				11,
				12,
				13
			]
		}
	],
	"nodes":[
		{
			"mesh":0,
			"name":"kaedim_mesh_0"
		},
		{
			"mesh":1,
			"name":"kaedim_mesh_1"
		},
		{
			"mesh":2,
			"name":"kaedim_mesh_2"
		},
		{
			"mesh":3,
			"name":"kaedim_mesh_3"
		},
		{
			"mesh":4,
			"name":"kaedim_mesh_4"
		},
		{
			"mesh":5,
			"name":"kaedim_mesh_5"
		},
		{
			"mesh":6,
			"name":"kaedim_mesh_6"
		},
		{
			"mesh":7,
			"name":"kaedim_mesh_7"
		},
		{
			"mesh":8,
			"name":"kaedim_mesh_8"
		},
		{
			"mesh":9,
			"name":"kaedim_mesh_9"
		},
		{
			"mesh":10,
			"name":"kaedim_mesh_10"
		},
		{
			"mesh":11,
			"name":"kaedim_mesh_11"
		},
		{
			"mesh":12,
			"name":"kaedim_mesh_12"
		},
		{
			"mesh":13,
			"name":"kaedim_mesh_13"
		}
	],
	"materials":[
		{
			"doubleSided":false,
			"extensions":{
				"KHR_materials_transmission":{
					"transmissionFactor":0.5
				},
				"KHR_materials_volume":{
					"attenuationColor":[
						1,
						1,
						1
					],
					"thicknessFactor":0.009999999776482582
				}
			},
			"name":"Material_0.001",
			"pbrMetallicRoughness":{
				"baseColorFactor":[
					0,
					0.3049873113632202,
					0.022173885256052017,
					1
				],
				"metallicFactor":0,
				"roughnessFactor":0
			}
		},
		{
			"doubleSided":false,
			"extensions":{
				"KHR_materials_transmission":{
					"transmissionFactor":0.5
				},
				"KHR_materials_volume":{
					"attenuationColor":[
						1,
						1,
						1
					],
					"thicknessFactor":0.009999999776482582
				}
			},
			"name":"Material_1.001",
			"pbrMetallicRoughness":{
				"baseColorFactor":[
					0,
					0.3049873113632202,
					0.022173885256052017,
					1
				],
				"metallicFactor":0,
				"roughnessFactor":0
			}
		},
		{
			"name":"Material_2.001",
			"pbrMetallicRoughness":{
				"baseColorFactor":[
					0,
					0,
					0,
					1
				],
				"metallicFactor":0
			}
		},
		{
			"name":"Material_3.001",
			"pbrMetallicRoughness":{
				"metallicFactor":0
			}
		},
		{
			"name":"Material_4.001",
			"pbrMetallicRoughness":{
				"baseColorFactor":[
					0,
					0.14126329123973846,
					0,
					1
				],
				"metallicFactor":0
			}
		},
		{
			"name":"Material_5.002",
			"pbrMetallicRoughness":{
				"baseColorFactor":[
					0.8069522380828857,
					0.8069522380828857,
					0.8069522380828857,
					1
				],
				"metallicFactor":0
			}
		},
		{
			"name":"Material_6.002",
			"pbrMetallicRoughness":{
				"baseColorFactor":[
					0,
					0,
					0,
					1
				],
				"metallicFactor":0
			}
		},
		{
			"name":"Material_7.002",
			"pbrMetallicRoughness":{
				"metallicFactor":0
			}
		},
		{
			"name":"Material_8.002",
			"pbrMetallicRoughness":{
				"metallicFactor":0
			}
		},
		{
			"name":"Material_9.002",
			"pbrMetallicRoughness":{
				"metallicFactor":0
			}
		},
		{
			"name":"Material_10.002",
			"pbrMetallicRoughness":{
				"metallicFactor":0
			}
		},
		{
			"name":"Material_11.002",
			"pbrMetallicRoughness":{
				"metallicFactor":0
			}
		},
		{
			"name":"Material_12.002",
			"pbrMetallicRoughness":{
				"metallicFactor":0
			}
		},
		{
			"name":"Material_13.002",
			"pbrMetallicRoughness":{
				"metallicFactor":0
			}
		}
	],
	"meshes":[
		{
			"name":"kaedim_mesh_0",
			"primitives":[
				{
					"attributes":{
						"POSITION":0,
						"NORMAL":1
					},
					"indices":2,
					"material":0
				}
			]
		},
		{
			"name":"kaedim_mesh_1",
			"primitives":[
				{
					"attributes":{
						"POSITION":3,
						"NORMAL":4,
						"TEXCOORD_0":5,
						"TEXCOORD_1":6
					},
					"indices":7,
					"material":1
				}
			]
		},
		{
			"name":"kaedim_mesh_2",
			"primitives":[
				{
					"attributes":{
						"POSITION":8,
						"NORMAL":9,
						"TEXCOORD_0":10
					},
					"indices":11,
					"material":2
				}
			]
		},
		{
			"name":"kaedim_mesh_3",
			"primitives":[
				{
					"attributes":{
						"POSITION":12,
						"NORMAL":13,
						"TEXCOORD_0":14
					},
					"indices":15,
					"material":3
				}
			]
		},
		{
			"name":"kaedim_mesh_4",
			"primitives":[
				{
					"attributes":{
						"POSITION":16,
						"NORMAL":17
					},
					"indices":18,
					"material":4
				}
			]
		},
		{
			"name":"kaedim_mesh_5",
			"primitives":[
				{
					"attributes":{
						"POSITION":19,
						"NORMAL":20
					},
					"indices":21,
					"material":5
				}
			]
		},
		{
			"name":"kaedim_mesh_6",
			"primitives":[
				{
					"attributes":{
						"POSITION":22,
						"NORMAL":23,
						"TEXCOORD_0":24
					},
					"indices":25,
					"material":6
				}
			]
		},
		{
			"name":"kaedim_mesh_7",
			"primitives":[
				{
					"attributes":{
						"POSITION":26,
						"NORMAL":27,
						"TEXCOORD_0":28
					},
					"indices":29,
					"material":7
				}
			]
		},
		{
			"name":"kaedim_mesh_8",
			"primitives":[
				{
					"attributes":{
						"POSITION":30,
						"NORMAL":31,
						"TEXCOORD_0":32
					},
					"indices":33,
					"material":8
				}
			]
		},
		{
			"name":"kaedim_mesh_9",
			"primitives":[
				{
					"attributes":{
						"POSITION":34,
						"NORMAL":35,
						"TEXCOORD_0":36
					},
					"indices":33,
					"material":9
				}
			]
		},
		{
			"name":"kaedim_mesh_10",
			"primitives":[
				{
					"attributes":{
						"POSITION":37,
						"NORMAL":38,
						"TEXCOORD_0":39
					},
					"indices":40,
					"material":10
				}
			]
		},
		{
			"name":"kaedim_mesh_11",
			"primitives":[
				{
					"attributes":{
						"POSITION":41,
						"NORMAL":42,
						"TEXCOORD_0":43
					},
					"indices":44,
					"material":11
				}
			]
		},
		{
			"name":"kaedim_mesh_12",
			"primitives":[
				{
					"attributes":{
						"POSITION":45,
						"NORMAL":46,
						"TEXCOORD_0":47
					},
					"indices":44,
					"material":12
				}
			]
		},
		{
			"name":"kaedim_mesh_13",
			"primitives":[
				{
					"attributes":{
						"POSITION":48,
						"NORMAL":49,
						"TEXCOORD_0":50
					},
					"indices":51,
					"material":13
				}
			]
		}
	],
	"accessors":[
		{
			"bufferView":0,
			"componentType":5126,
			"count":9826,
			"max":[
				0.2498793751001358,
				0.2499999850988388,
				0.20134805142879486
			],
			"min":[
				-0.19931815564632416,
				-0.23097044229507446,
				-0.23845422267913818
			],
			"type":"VEC3"
		},
		{
			"bufferView":1,
			"componentType":5126,
			"count":9826,
			"type":"VEC3"
		},
		{
			"bufferView":2,
			"componentType":5123,
			"count":58944,
			"type":"SCALAR"
		},
		{
			"bufferView":3,
			"componentType":5126,
			"count":2388,
			"max":[
				-0.05243067070841789,
				-0.09284251183271408,
				0.23845426738262177
			],
			"min":[
				-0.2498793751001358,
				-0.24999995529651642,
				-0.10091156512498856
			],
			"type":"VEC3"
		},
		{
			"bufferView":4,
			"componentType":5126,
			"count":2388,
			"type":"VEC3"
		},
		{
			"bufferView":5,
			"componentType":5126,
			"count":2388,
			"type":"VEC2"
		},
		{
			"bufferView":6,
			"componentType":5126,
			"count":2388,
			"type":"VEC2"
		},
		{
			"bufferView":7,
			"componentType":5123,
			"count":12384,
			"type":"SCALAR"
		},
		{
			"bufferView":8,
			"componentType":5126,
			"count":150,
			"max":[
				-0.0986078605055809,
				0.10778852552175522,
				0.10430577397346497
			],
			"min":[
				-0.16156962513923645,
				0.050862815231084824,
				0.07546334713697433
			],
			"type":"VEC3"
		},
		{
			"bufferView":9,
			"componentType":5126,
			"count":150,
			"type":"VEC3"
		},
		{
			"bufferView":10,
			"componentType":5126,
			"count":150,
			"type":"VEC2"
		},
		{
			"bufferView":11,
			"componentType":5123,
			"count":888,
			"type":"SCALAR"
		},
		{
			"bufferView":12,
			"componentType":5126,
			"count":125,
			"max":[
				0.10096268355846405,
				0.12309668958187103,
				0.1878538429737091
			],
			"min":[
				-0.07087522000074387,
				0.03768366947770119,
				0.04241177439689636
			],
			"type":"VEC3"
		},
		{
			"bufferView":13,
			"componentType":5126,
			"count":125,
			"type":"VEC3"
		},
		{
			"bufferView":14,
			"componentType":5126,
			"count":125,
			"type":"VEC2"
		},
		{
			"bufferView":15,
			"componentType":5123,
			"count":576,
			"type":"SCALAR"
		},
		{
			"bufferView":16,
			"componentType":5126,
			"count":912,
			"max":[
				0.1205463781952858,
				0.018938671797513962,
				0.21110911667346954
			],
			"min":[
				-0.20333391427993774,
				-0.08817578107118607,
				-0.11042854934930801
			],
			"type":"VEC3"
		},
		{
			"bufferView":17,
			"componentType":5126,
			"count":912,
			"type":"VEC3"
		},
		{
			"bufferView":18,
			"componentType":5123,
			"count":5472,
			"type":"SCALAR"
		},
		{
			"bufferView":19,
			"componentType":5126,
			"count":51,
			"max":[
				-0.07239625602960587,
				0.09104232490062714,
				0.10732147842645645
			],
			"min":[
				-0.07887248694896698,
				0.07521368563175201,
				0.09910603612661362
			],
			"type":"VEC3"
		},
		{
			"bufferView":20,
			"componentType":5126,
			"count":51,
			"type":"VEC3"
		},
		{
			"bufferView":21,
			"componentType":5123,
			"count":294,
			"type":"SCALAR"
		},
		{
			"bufferView":22,
			"componentType":5126,
			"count":150,
			"max":[
				0.03771021589636803,
				0.11165007948875427,
				0.19016043841838837
			],
			"min":[
				-0.02533651515841484,
				0.06231535226106644,
				0.16881677508354187
			],
			"type":"VEC3"
		},
		{
			"bufferView":23,
			"componentType":5126,
			"count":150,
			"type":"VEC3"
		},
		{
			"bufferView":24,
			"componentType":5126,
			"count":150,
			"type":"VEC2"
		},
		{
			"bufferView":25,
			"componentType":5123,
			"count":888,
			"type":"SCALAR"
		},
		{
			"bufferView":26,
			"componentType":5126,
			"count":50,
			"max":[
				-0.13852053880691528,
				0.08737905323505402,
				0.09758561104536057
			],
			"min":[
				-0.15077295899391174,
				0.07440774142742157,
				0.08911651372909546
			],
			"type":"VEC3"
		},
		{
			"bufferView":27,
			"componentType":5126,
			"count":50,
			"type":"VEC3"
		},
		{
			"bufferView":28,
			"componentType":5126,
			"count":50,
			"type":"VEC2"
		},
		{
			"bufferView":29,
			"componentType":5123,
			"count":288,
			"type":"SCALAR"
		},
		{
			"bufferView":30,
			"componentType":5126,
			"count":50,
			"max":[
				-0.11882088333368301,
				0.09623261541128159,
				0.10230108350515366
			],
			"min":[
				-0.12713931500911713,
				0.08746948093175888,
				0.09591314941644669
			],
			"type":"VEC3"
		},
		{
			"bufferView":31,
			"componentType":5126,
			"count":50,
			"type":"VEC3"
		},
		{
			"bufferView":32,
			"componentType":5126,
			"count":50,
			"type":"VEC2"
		},
		{
			"bufferView":33,
			"componentType":5123,
			"count":288,
			"type":"SCALAR"
		},
		{
			"bufferView":34,
			"componentType":5126,
			"count":50,
			"max":[
				-0.12099573761224747,
				0.08082012832164764,
				0.10300806164741516
			],
			"min":[
				-0.129080668091774,
				0.07208311557769775,
				0.09912054985761642
			],
			"type":"VEC3"
		},
		{
			"bufferView":35,
			"componentType":5126,
			"count":50,
			"type":"VEC3"
		},
		{
			"bufferView":36,
			"componentType":5126,
			"count":50,
			"type":"VEC2"
		},
		{
			"bufferView":37,
			"componentType":5126,
			"count":50,
			"max":[
				-0.001432036398909986,
				0.09033422917127609,
				0.18625205755233765
			],
			"min":[
				-0.012557851150631905,
				0.07897136360406876,
				0.17892533540725708
			],
			"type":"VEC3"
		},
		{
			"bufferView":38,
			"componentType":5126,
			"count":50,
			"type":"VEC3"
		},
		{
			"bufferView":39,
			"componentType":5126,
			"count":50,
			"type":"VEC2"
		},
		{
			"bufferView":40,
			"componentType":5123,
			"count":288,
			"type":"SCALAR"
		},
		{
			"bufferView":41,
			"componentType":5126,
			"count":50,
			"max":[
				0.02024586871266365,
				0.09875469654798508,
				0.18960149586200714
			],
			"min":[
				0.011870670132339,
				0.090143121778965,
				0.1852439045906067
			],
			"type":"VEC3"
		},
		{
			"bufferView":42,
			"componentType":5126,
			"count":50,
			"type":"VEC3"
		},
		{
			"bufferView":43,
			"componentType":5126,
			"count":50,
			"type":"VEC2"
		},
		{
			"bufferView":44,
			"componentType":5123,
			"count":288,
			"type":"SCALAR"
		},
		{
			"bufferView":45,
			"componentType":5126,
			"count":50,
			"max":[
				0.01952911727130413,
				0.08339934796094894,
				0.19032473862171173
			],
			"min":[
				0.010791337117552757,
				0.07437767833471298,
				0.18468225002288818
			],
			"type":"VEC3"
		},
		{
			"bufferView":46,
			"componentType":5126,
			"count":50,
			"type":"VEC3"
		},
		{
			"bufferView":47,
			"componentType":5126,
			"count":50,
			"type":"VEC2"
		},
		{
			"bufferView":48,
			"componentType":5126,
			"count":125,
			"max":[
				-0.027734680101275444,
				0.11701764166355133,
				0.10334663093090057
			],
			"min":[
				-0.1876743882894516,
				0.03175801411271095,
				-0.05709676444530487
			],
			"type":"VEC3"
		},
		{
			"bufferView":49,
			"componentType":5126,
			"count":125,
			"type":"VEC3"
		},
		{
			"bufferView":50,
			"componentType":5126,
			"count":125,
			"type":"VEC2"
		},
		{
			"bufferView":51,
			"componentType":5123,
			"count":576,
			"type":"SCALAR"
		}
	],
	"bufferViews":[
		{
			"buffer":0,
			"byteLength":117912,
			"byteOffset":0,
			"target":34962
		},
		{
			"buffer":0,
			"byteLength":117912,
			"byteOffset":117912,
			"target":34962
		},
		{
			"buffer":0,
			"byteLength":117888,
			"byteOffset":235824,
			"target":34963
		},
		{
			"buffer":0,
			"byteLength":28656,
			"byteOffset":353712,
			"target":34962
		},
		{
			"buffer":0,
			"byteLength":28656,
			"byteOffset":382368,
			"target":34962
		},
		{
			"buffer":0,
			"byteLength":19104,
			"byteOffset":411024,
			"target":34962
		},
		{
			"buffer":0,
			"byteLength":19104,
			"byteOffset":430128,
			"target":34962
		},
		{
			"buffer":0,
			"byteLength":24768,
			"byteOffset":449232,
			"target":34963
		},
		{
			"buffer":0,
			"byteLength":1800,
			"byteOffset":474000,
			"target":34962
		},
		{
			"buffer":0,
			"byteLength":1800,
			"byteOffset":475800,
			"target":34962
		},
		{
			"buffer":0,
			"byteLength":1200,
			"byteOffset":477600,
			"target":34962
		},
		{
			"buffer":0,
			"byteLength":1776,
			"byteOffset":478800,
			"target":34963
		},
		{
			"buffer":0,
			"byteLength":1500,
			"byteOffset":480576,
			"target":34962
		},
		{
			"buffer":0,
			"byteLength":1500,
			"byteOffset":482076,
			"target":34962
		},
		{
			"buffer":0,
			"byteLength":1000,
			"byteOffset":483576,
			"target":34962
		},
		{
			"buffer":0,
			"byteLength":1152,
			"byteOffset":484576,
			"target":34963
		},
		{
			"buffer":0,
			"byteLength":10944,
			"byteOffset":485728,
			"target":34962
		},
		{
			"buffer":0,
			"byteLength":10944,
			"byteOffset":496672,
			"target":34962
		},
		{
			"buffer":0,
			"byteLength":10944,
			"byteOffset":507616,
			"target":34963
		},
		{
			"buffer":0,
			"byteLength":612,
			"byteOffset":518560,
			"target":34962
		},
		{
			"buffer":0,
			"byteLength":612,
			"byteOffset":519172,
			"target":34962
		},
		{
			"buffer":0,
			"byteLength":588,
			"byteOffset":519784,
			"target":34963
		},
		{
			"buffer":0,
			"byteLength":1800,
			"byteOffset":520372,
			"target":34962
		},
		{
			"buffer":0,
			"byteLength":1800,
			"byteOffset":522172,
			"target":34962
		},
		{
			"buffer":0,
			"byteLength":1200,
			"byteOffset":523972,
			"target":34962
		},
		{
			"buffer":0,
			"byteLength":1776,
			"byteOffset":525172,
			"target":34963
		},
		{
			"buffer":0,
			"byteLength":600,
			"byteOffset":526948,
			"target":34962
		},
		{
			"buffer":0,
			"byteLength":600,
			"byteOffset":527548,
			"target":34962
		},
		{
			"buffer":0,
			"byteLength":400,
			"byteOffset":528148,
			"target":34962
		},
		{
			"buffer":0,
			"byteLength":576,
			"byteOffset":528548,
			"target":34963
		},
		{
			"buffer":0,
			"byteLength":600,
			"byteOffset":529124,
			"target":34962
		},
		{
			"buffer":0,
			"byteLength":600,
			"byteOffset":529724,
			"target":34962
		},
		{
			"buffer":0,
			"byteLength":400,
			"byteOffset":530324,
			"target":34962
		},
		{
			"buffer":0,
			"byteLength":576,
			"byteOffset":530724,
			"target":34963
		},
		{
			"buffer":0,
			"byteLength":600,
			"byteOffset":531300,
			"target":34962
		},
		{
			"buffer":0,
			"byteLength":600,
			"byteOffset":531900,
			"target":34962
		},
		{
			"buffer":0,
			"byteLength":400,
			"byteOffset":532500,
			"target":34962
		},
		{
			"buffer":0,
			"byteLength":600,
			"byteOffset":532900,
			"target":34962
		},
		{
			"buffer":0,
			"byteLength":600,
			"byteOffset":533500,
			"target":34962
		},
		{
			"buffer":0,
			"byteLength":400,
			"byteOffset":534100,
			"target":34962
		},
		{
			"buffer":0,
			"byteLength":576,
			"byteOffset":534500,
			"target":34963
		},
		{
			"buffer":0,
			"byteLength":600,
			"byteOffset":535076,
			"target":34962
		},
		{
			"buffer":0,
			"byteLength":600,
			"byteOffset":535676,
			"target":34962
		},
		{
			"buffer":0,
			"byteLength":400,
			"byteOffset":536276,
			"target":34962
		},
		{
			"buffer":0,
			"byteLength":576,
			"byteOffset":536676,
			"target":34963
		},
		{
			"buffer":0,
			"byteLength":600,
			"byteOffset":537252,
			"target":34962
		},
		{
			"buffer":0,
			"byteLength":600,
			"byteOffset":537852,
			"target":34962
		},
		{
			"buffer":0,
			"byteLength":400,
			"byteOffset":538452,
			"target":34962
		},
		{
			"buffer":0,
			"byteLength":1500,
			"byteOffset":538852,
			"target":34962
		},
		{
			"buffer":0,
			"byteLength":1500,
			"byteOffset":540352,
			"target":34962
		},
		{
			"buffer":0,
			"byteLength":1000,
			"byteOffset":541852,
			"target":34962
		},
		{
			"buffer":0,
			"byteLength":1152,
			"byteOffset":542852,
			"target":34963
		}
	],
	"buffers":[
		{
			"byteLength":544004,
			"uri":"data:application/octet-stream;base64,"
		}
	]
}
